<svg width="142" height="53" viewBox="0 0 142 53" fill="none" xmlns="http://www.w3.org/2000/svg">
<g clip-path="url(#clip0)">
<path fill-rule="evenodd" clip-rule="evenodd" d="M32.9576 16.6C32.9336 19.8557 31.9459 23.0314 30.1189 25.7262C28.2919 28.4211 25.7076 30.5143 22.6921 31.7419C19.6766 32.9694 16.3651 33.2762 13.1754 32.6235C9.98574 31.9708 7.06088 30.3879 4.76995 28.0745C2.47902 25.7611 0.924691 22.821 0.303115 19.6251C-0.318462 16.4292 0.0205722 13.1208 1.27743 10.1174C2.53429 7.11405 4.65265 4.55027 7.36517 2.74964C10.0777 0.949011 13.2628 -0.0077675 16.5186 4.74949e-05C20.899 0.024123 25.0907 1.78591 28.173 4.89842C31.2553 8.01093 32.9762 12.2196 32.9576 16.6Z" fill="white"/>
<path d="M16.5186 29.3311C23.4586 29.3311 29.0846 23.6675 29.0846 16.6811C29.0846 9.69466 23.4586 4.03107 16.5186 4.03107C9.57857 4.03107 3.95258 9.69466 3.95258 16.6811C3.95258 23.6675 9.57857 29.3311 16.5186 29.3311Z" fill="#1A202C"/>
<path fill-rule="evenodd" clip-rule="evenodd" d="M18.6516 8.38103H10.4326C10.8718 8.8296 11.217 9.36146 11.4478 9.94534C11.6786 10.5292 11.7904 11.1533 11.7766 11.781C11.7678 13.0422 11.2885 14.2547 10.4326 15.181H18.6516C19.5514 15.1747 20.4125 14.8145 21.0488 14.1782C21.685 13.542 22.0453 12.6808 22.0516 11.781C22.0552 11.3335 21.9697 10.8898 21.8001 10.4757C21.6305 10.0615 21.3802 9.68529 21.0637 9.36885C20.7473 9.05241 20.3711 8.8021 19.9569 8.63251C19.5428 8.46292 19.0991 8.37743 18.6516 8.38103V8.38103Z" fill="white"/>
<path fill-rule="evenodd" clip-rule="evenodd" d="M20.0746 18.027H10.4326C10.8718 18.4756 11.217 19.0075 11.4478 19.5913C11.6786 20.1752 11.7904 20.7994 11.7766 21.427C11.7678 22.6882 11.2885 23.9007 10.4326 24.827H20.0746C20.9763 24.827 21.8411 24.4688 22.4787 23.8312C23.1163 23.1936 23.4746 22.3288 23.4746 21.427C23.4746 20.5253 23.1163 19.6605 22.4787 19.0229C21.8411 18.3853 20.9763 18.027 20.0746 18.027V18.027Z" fill="white"/>
<path fill-rule="evenodd" clip-rule="evenodd" d="M56.0516 9.25006C58.4162 9.23362 60.7324 9.9198 62.7065 11.2216C64.6806 12.5233 66.2237 14.3821 67.1399 16.562C68.0562 18.742 68.3044 21.1449 67.8531 23.4661C67.4018 25.7873 66.2714 27.9222 64.605 29.6001C62.9387 31.2779 60.8117 32.4231 58.4936 32.8904C56.1756 33.3576 53.771 33.126 51.5848 32.2248C49.3986 31.3235 47.5292 29.7934 46.2139 27.8283C44.8985 25.8632 44.1964 23.5517 44.1966 21.1871V6.10352e-05C44.774 0.000773479 45.3455 0.116359 45.8778 0.340086C46.4101 0.563813 46.8926 0.891211 47.2972 1.30321C47.7017 1.71522 48.0203 2.20359 48.2342 2.7399C48.4482 3.2762 48.5534 3.84972 48.5436 4.42706V11.9371C50.6638 10.2065 53.3147 9.25778 56.0516 9.25006V9.25006ZM56.0516 13.6771C54.5661 13.6767 53.114 14.1168 51.8787 14.9418C50.6434 15.7667 49.6805 16.9395 49.1118 18.3117C48.5431 19.684 48.3941 21.194 48.6836 22.651C48.9732 24.1079 49.6883 25.4462 50.7385 26.4967C51.7887 27.5472 53.1268 28.2627 54.5837 28.5526C56.0405 28.8425 57.5507 28.6939 58.923 28.1256C60.2954 27.5572 61.4685 26.5947 62.2938 25.3596C63.1191 24.1245 63.5596 22.6725 63.5596 21.1871C63.5472 19.1994 62.7523 17.2967 61.347 15.891C59.9417 14.4853 58.0392 13.6899 56.0516 13.6771V13.6771Z" fill="white"/>
<path fill-rule="evenodd" clip-rule="evenodd" d="M95.5826 9.25702C98.7362 9.27078 101.756 10.535 103.978 12.7724C106.201 15.0097 107.445 18.0374 107.438 21.191C107.441 21.9352 107.362 22.6775 107.201 23.404H88.3906C88.8616 24.9424 89.8152 26.2884 91.1104 27.2429C92.4057 28.1974 93.9737 28.7097 95.5826 28.704C96.6618 28.6982 97.7274 28.4627 98.7085 28.013C99.6896 27.5633 100.564 26.9098 101.273 26.096H106.41C105.52 28.0332 104.126 29.6955 102.374 30.9086C100.621 32.1218 98.5746 32.8412 96.4484 32.9914C94.3222 33.1417 92.1947 32.7172 90.289 31.7625C88.3832 30.8077 86.7694 29.358 85.6166 27.5651C84.4638 25.7722 83.8146 23.7022 83.7369 21.5721C83.6592 19.442 84.1559 17.3303 85.175 15.4582C86.194 13.5861 87.698 12.0225 89.5291 10.9315C91.3602 9.84049 93.4511 9.26211 95.5826 9.25702V9.25702ZM102.696 19.057C102.227 17.5265 101.279 16.1868 99.9919 15.2349C98.7049 14.2831 97.1463 13.7695 95.5456 13.7695C93.9448 13.7695 92.3863 14.2831 91.0992 15.2349C89.8121 16.1868 88.8645 17.5265 88.3956 19.057H102.696Z" fill="white"/>
<path fill-rule="evenodd" clip-rule="evenodd" d="M121.914 9.25006C119.549 9.23362 117.233 9.9198 115.259 11.2216C113.285 12.5233 111.741 14.3821 110.825 16.562C109.909 18.742 109.661 21.1449 110.112 23.4661C110.563 25.7873 111.694 27.9222 113.36 29.6001C115.026 31.2779 117.153 32.4231 119.472 32.8904C121.79 33.3576 124.194 33.126 126.38 32.2248C128.567 31.3235 130.436 29.7934 131.751 27.8283C133.067 25.8632 133.769 23.5517 133.769 21.1871V6.10352e-05C133.191 0.000773479 132.62 0.116359 132.087 0.340086C131.555 0.563813 131.073 0.891211 130.668 1.30321C130.263 1.71522 129.945 2.20359 129.731 2.7399C129.517 3.2762 129.412 3.84972 129.422 4.42706V11.9371C127.301 10.2065 124.65 9.25778 121.914 9.25006V9.25006ZM121.914 13.6771C123.399 13.6767 124.851 14.1168 126.086 14.9418C127.322 15.7667 128.285 16.9395 128.853 18.3117C129.422 19.684 129.571 21.194 129.282 22.651C128.992 24.1079 128.277 25.4462 127.227 26.4967C126.176 27.5472 124.838 28.2627 123.381 28.5526C121.925 28.8425 120.414 28.6939 119.042 28.1256C117.67 27.5572 116.497 26.5947 115.671 25.3596C114.846 24.1245 114.406 22.6725 114.406 21.1871C114.418 19.1994 115.213 17.2967 116.618 15.891C118.023 14.4853 119.926 13.6899 121.914 13.6771V13.6771Z" fill="white"/>
<path fill-rule="evenodd" clip-rule="evenodd" d="M70.5216 21.2701C70.5113 19.7066 70.8103 18.1566 71.4015 16.7092C71.9926 15.2619 72.8642 13.9457 73.9661 12.8365C75.0679 11.7273 76.3783 10.847 77.8217 10.2462C79.2651 9.64548 80.8131 9.33616 82.3766 9.33606V13.7621C80.3892 13.7746 78.4868 14.5697 77.0815 15.975C75.6762 17.3803 74.8811 19.2827 74.8686 21.2701V28.7781C74.8755 29.9404 74.4223 31.0582 73.6078 31.8875C72.7933 32.7168 71.6838 33.1901 70.5216 33.2041V21.2701Z" fill="white"/>
<path fill-rule="evenodd" clip-rule="evenodd" d="M137.088 9.73102H141.514V28.857C141.514 29.4385 141.401 30.0145 141.179 30.5519C140.956 31.0893 140.63 31.5776 140.219 31.9887C139.808 32.3999 139.32 32.7259 138.782 32.948C138.245 33.1701 137.669 33.2839 137.088 33.283V9.73102Z" fill="white"/>
<path fill-rule="evenodd" clip-rule="evenodd" d="M139.301 6.10352e-05C139.884 0.0125591 140.439 0.249726 140.852 0.662066C141.264 1.07441 141.501 1.63006 141.514 2.21306C141.514 2.79999 141.28 3.36287 140.865 3.77789C140.45 4.19291 139.887 4.42606 139.301 4.42606C138.714 4.42606 138.151 4.19291 137.736 3.77789C137.321 3.36287 137.088 2.79999 137.088 2.21306C137.1 1.63006 137.337 1.07441 137.75 0.662066C138.162 0.249726 138.718 0.0125591 139.301 6.10352e-05V6.10352e-05Z" fill="white"/>
<path d="M4.35098 50.088C3.61839 50.0982 2.89539 49.9206 2.25098 49.572C1.6405 49.2418 1.13211 48.7507 0.780982 48.152C0.422103 47.5342 0.238195 46.8303 0.248984 46.116C0.239042 45.4045 0.422207 44.7036 0.778983 44.088C1.13086 43.4881 1.6412 42.9968 2.25398 42.668C2.90128 42.3194 3.62685 42.1417 4.36198 42.152C4.93116 42.145 5.49627 42.2486 6.02598 42.457C6.51923 42.6526 6.95994 42.9608 7.31298 43.357L6.59198 44.057C6.3135 43.7578 5.97479 43.5211 5.59817 43.3623C5.22156 43.2036 4.81558 43.1264 4.40698 43.136C3.86091 43.1282 3.32212 43.2619 2.84298 43.524C2.3869 43.773 2.00862 44.1433 1.74998 44.594C1.48517 45.0581 1.34914 45.5846 1.35598 46.119C1.34914 46.6533 1.48517 47.1798 1.74998 47.644C2.00862 48.0946 2.3869 48.465 2.84298 48.714C3.32212 48.976 3.86091 49.1097 4.40698 49.102C4.81634 49.1097 5.22269 49.0306 5.59929 48.87C5.97589 48.7093 6.3142 48.4708 6.59198 48.17L7.31298 48.87C6.9585 49.2692 6.51624 49.5807 6.02098 49.78C5.48979 49.9908 4.92243 50.0954 4.35098 50.088V50.088ZM9.76398 45.107C9.94808 44.7673 10.2357 44.4951 10.585 44.33C10.9989 44.1417 11.4504 44.0507 11.905 44.064V45.098C11.8239 45.0895 11.7425 45.0859 11.661 45.087C11.411 45.0733 11.1609 45.1121 10.9268 45.201C10.6927 45.2899 10.4799 45.4268 10.302 45.603C9.95042 46.0089 9.77294 46.5371 9.80798 47.073V50.002H8.74298V44.122H9.76398V45.107ZM13.214 44.12H14.279V50.002H13.214V44.12ZM13.746 42.988C13.651 42.9909 13.5563 42.9747 13.4677 42.9403C13.3791 42.906 13.2982 42.8542 13.23 42.788C13.1637 42.7254 13.1113 42.6496 13.076 42.5656C13.0407 42.4816 13.0233 42.3911 13.025 42.3C13.0236 42.208 13.041 42.1167 13.0763 42.0317C13.1116 41.9468 13.1639 41.8699 13.23 41.806C13.2975 41.7384 13.378 41.6854 13.4668 41.6501C13.5555 41.6149 13.6505 41.5981 13.746 41.601C13.9369 41.5947 14.1225 41.6645 14.262 41.795C14.3285 41.8563 14.3812 41.9311 14.4165 42.0144C14.4519 42.0977 14.4691 42.1875 14.467 42.278C14.4684 42.3709 14.451 42.4631 14.4158 42.549C14.3806 42.635 14.3282 42.7129 14.262 42.778C14.195 42.8463 14.1148 42.9002 14.0262 42.9363C13.9377 42.9724 13.8426 42.99 13.747 42.988H13.746ZM21.855 44.12V50.002H20.834V49.07C20.6027 49.3907 20.2927 49.6466 19.934 49.813C19.5579 49.9861 19.148 50.0733 18.734 50.068C18.2014 50.0749 17.6761 49.944 17.209 49.688C16.7632 49.4429 16.3958 49.0768 16.149 48.632C15.8871 48.1508 15.7551 47.6097 15.766 47.062C15.7547 46.5161 15.8868 45.9768 16.149 45.498C16.3966 45.0543 16.7639 44.6891 17.209 44.444C17.6781 44.188 18.2056 44.0581 18.74 44.067C19.1409 44.0628 19.5381 44.1443 19.905 44.306C20.2551 44.4605 20.5603 44.7013 20.792 45.006V44.119L21.855 44.12ZM18.827 49.134C19.1805 49.138 19.5287 49.0479 19.836 48.873C20.1373 48.7012 20.3835 48.4473 20.546 48.141C20.7207 47.8075 20.8084 47.4354 20.801 47.059C20.8084 46.6826 20.7207 46.3104 20.546 45.977C20.3844 45.6712 20.1378 45.4187 19.836 45.25C19.5276 45.0786 19.1798 44.9908 18.827 44.995C18.4721 44.9893 18.122 45.0772 17.812 45.25C17.5117 45.4208 17.2657 45.6728 17.102 45.977C16.9237 46.3093 16.8338 46.6819 16.841 47.059C16.8338 47.436 16.9237 47.8086 17.102 48.141C17.2666 48.4458 17.5123 48.6991 17.812 48.873C18.1209 49.0502 18.4719 49.141 18.828 49.136L18.827 49.134ZM26.437 50.066C25.8793 50.0754 25.3284 49.9419 24.837 49.678C24.3792 49.4288 23.9987 49.0587 23.737 48.608C23.4664 48.1375 23.3281 47.6026 23.337 47.06C23.3281 46.5173 23.4664 45.9824 23.737 45.512C23.9978 45.0619 24.3787 44.6931 24.837 44.447C25.3294 44.1863 25.8799 44.0545 26.437 44.064C26.9309 44.0553 27.4197 44.1658 27.862 44.386C28.2717 44.5924 28.6099 44.9171 28.833 45.318L28.023 45.839C27.8529 45.5717 27.6157 45.3538 27.335 45.207C27.0531 45.0644 26.7409 44.992 26.425 44.996C26.0631 44.9902 25.7059 45.078 25.388 45.251C25.083 45.4192 24.8327 45.6716 24.667 45.978C24.4887 46.3103 24.3988 46.6829 24.406 47.06C24.3979 47.4407 24.4877 47.817 24.667 48.153C24.8327 48.4594 25.083 48.7117 25.388 48.88C25.7059 49.0529 26.0631 49.1407 26.425 49.135C26.7409 49.1389 27.0531 49.0665 27.335 48.924C27.6157 48.7772 27.8529 48.5592 28.023 48.292L28.833 48.802C28.609 49.2034 28.2711 49.5294 27.862 49.739C27.4212 49.963 26.9324 50.076 26.438 50.068L26.437 50.066ZM25.917 52.488C25.5719 52.4978 25.2307 52.4135 24.93 52.244L25.163 51.7C25.3933 51.8281 25.6534 51.8933 25.917 51.889C26.331 51.889 26.538 51.741 26.538 51.445C26.5398 51.3831 26.5262 51.3218 26.4984 51.2664C26.4707 51.2111 26.4296 51.1635 26.379 51.128C26.2361 51.0403 26.0692 50.9997 25.902 51.012H25.602L25.879 49.924H26.489L26.323 50.556C26.5889 50.5664 26.8425 50.6705 27.039 50.85C27.1213 50.9319 27.1859 51.0298 27.2289 51.1376C27.2719 51.2454 27.2923 51.3609 27.289 51.477C27.2932 51.6218 27.2609 51.7653 27.195 51.8942C27.1291 52.0232 27.0318 52.1335 26.912 52.215C26.6174 52.4087 26.2691 52.5042 25.917 52.488V52.488ZM35.668 44.124V50.002H34.647V49.07C34.4157 49.3907 34.1057 49.6466 33.747 49.813C33.3709 49.9861 32.961 50.0733 32.547 50.068C32.0137 50.0752 31.4877 49.9443 31.02 49.688C30.5742 49.4419 30.2071 49.0748 29.961 48.629C29.6991 48.1478 29.5671 47.6067 29.578 47.059C29.5667 46.5131 29.6988 45.9738 29.961 45.495C30.2084 45.0514 30.5753 44.6863 31.02 44.441C31.4891 44.185 32.0166 44.0551 32.551 44.064C32.9519 44.0598 33.3491 44.1413 33.716 44.303C34.0661 44.4575 34.3713 44.6983 34.603 45.003V44.116L35.668 44.124ZM32.639 49.136C32.9925 49.14 33.3407 49.0499 33.648 48.875C33.9493 48.7032 34.1955 48.4493 34.358 48.143C34.5327 47.8095 34.6204 47.4373 34.613 47.061C34.6204 46.6846 34.5327 46.3124 34.358 45.979C34.1964 45.6732 33.9498 45.4207 33.648 45.252C33.3396 45.0806 32.9918 44.9928 32.639 44.997C32.2841 44.9913 31.934 45.0792 31.624 45.252C31.3237 45.4228 31.0777 45.6748 30.914 45.979C30.7357 46.3113 30.6458 46.6839 30.653 47.061C30.6458 47.438 30.7357 47.8106 30.914 48.143C31.0786 48.4478 31.3243 48.7011 31.624 48.875C31.9328 49.0513 32.2834 49.1415 32.639 49.136V49.136ZM33.604 43.236C33.4436 43.24 33.2849 43.2018 33.144 43.125C32.9759 43.0246 32.8145 42.9134 32.661 42.792C32.5731 42.7065 32.4766 42.6304 32.373 42.565C32.3002 42.5175 32.2158 42.4909 32.129 42.488C32.0528 42.486 31.9771 42.5014 31.9078 42.5331C31.8384 42.5648 31.7773 42.612 31.729 42.671C31.6188 42.8141 31.5603 42.9903 31.563 43.171H30.963C30.9589 42.8177 31.0698 42.4727 31.279 42.188C31.3696 42.0705 31.4866 41.9761 31.6206 41.9125C31.7546 41.8489 31.9017 41.8179 32.05 41.822C32.2144 41.8187 32.3769 41.8587 32.521 41.938C32.6875 42.0368 32.8451 42.1499 32.992 42.276C33.0879 42.3568 33.1881 42.4326 33.292 42.503C33.3608 42.5494 33.4419 42.5745 33.525 42.575C33.6006 42.5773 33.6759 42.5626 33.7451 42.5319C33.8143 42.5013 33.8758 42.4555 33.925 42.398C34.0356 42.2596 34.0943 42.087 34.091 41.91H34.691C34.6945 42.2561 34.5834 42.5936 34.375 42.87C34.284 42.9869 34.1668 43.0808 34.0329 43.1442C33.899 43.2076 33.7521 43.2387 33.604 43.235V43.236ZM40.204 50.069C39.6543 50.0776 39.1117 49.9439 38.629 49.681C38.1729 49.432 37.7946 49.0616 37.536 48.611C37.269 48.1393 37.1329 47.6049 37.142 47.063C37.1329 46.5211 37.269 45.9866 37.536 45.515C37.7936 45.0645 38.1722 44.6952 38.629 44.449C39.1128 44.1893 39.6549 44.0575 40.204 44.066C40.7515 44.0569 41.2921 44.1888 41.774 44.449C42.2281 44.6963 42.6045 45.065 42.861 45.514C43.128 45.9856 43.264 46.5201 43.255 47.062C43.264 47.6039 43.128 48.1383 42.861 48.61C42.6049 49.0589 42.2307 49.4289 41.779 49.68C41.297 49.9441 40.7545 50.0778 40.205 50.068L40.204 50.069ZM40.204 49.137C40.5596 49.1425 40.9101 49.0523 41.219 48.876C41.5162 48.7023 41.7587 48.4487 41.919 48.144C42.0954 47.811 42.1849 47.4388 42.179 47.062C42.1864 46.6856 42.0987 46.3134 41.924 45.98C41.7647 45.6758 41.5219 45.4236 41.224 45.253C40.9139 45.0802 40.5638 44.9923 40.209 44.998C39.8541 44.9923 39.504 45.0802 39.194 45.253C38.8937 45.4238 38.6477 45.6758 38.484 45.98C38.3057 46.3123 38.2158 46.6849 38.223 47.062C38.2144 47.4383 38.3026 47.8105 38.479 48.143C38.6436 48.4478 38.8894 48.7011 39.189 48.875C39.4981 49.0515 39.849 49.1416 40.205 49.136L40.204 49.137ZM56.679 44.122V47.372C56.7279 48.0963 56.4978 48.8118 56.036 49.372C55.7932 49.6149 55.5013 49.803 55.1798 49.9237C54.8583 50.0445 54.5146 50.095 54.172 50.072C53.7721 50.1111 53.3695 50.032 53.014 49.8447C52.6586 49.6574 52.3658 49.3699 52.172 49.018C51.9973 49.3551 51.7247 49.6316 51.39 49.811C51.0087 49.9967 50.5878 50.0863 50.164 50.072C49.8205 50.0962 49.4758 50.0462 49.1533 49.9255C48.8308 49.8047 48.5381 49.6159 48.295 49.372C47.8364 48.8103 47.6083 48.0954 47.657 47.372V44.122H48.722V47.272C48.6846 47.7608 48.8052 48.2488 49.066 48.664C49.2005 48.8208 49.3704 48.9434 49.5617 49.0215C49.753 49.0996 49.9601 49.1309 50.166 49.113C50.3741 49.1295 50.5831 49.0971 50.7764 49.0182C50.9697 48.9394 51.1418 48.8163 51.279 48.659C51.5498 48.2495 51.6768 47.7615 51.64 47.272V44.122H52.705V47.272C52.6681 47.7615 52.7951 48.2495 53.066 48.659C53.2032 48.8168 53.3756 48.9402 53.5693 49.0192C53.763 49.0983 53.9725 49.1307 54.181 49.114C54.3848 49.1313 54.5899 49.0996 54.779 49.0215C54.9681 48.9434 55.1358 48.8211 55.268 48.665C55.5288 48.2498 55.6494 47.7618 55.612 47.273V44.123L56.679 44.122ZM61.294 49.136C61.612 49.1488 61.929 49.0919 62.2226 48.9693C62.5163 48.8466 62.7796 48.6612 62.994 48.426L63.571 49.114C63.3073 49.4281 62.9699 49.672 62.589 49.824C62.1673 49.9916 61.7167 50.0745 61.263 50.068C60.688 50.0804 60.119 49.9498 59.607 49.688C59.14 49.4461 58.7528 49.0746 58.492 48.618C58.2255 48.1443 58.0895 47.6084 58.098 47.065C58.0892 46.5257 58.2204 45.9933 58.479 45.52C58.7239 45.0722 59.0889 44.7016 59.533 44.45C59.995 44.1909 60.5174 44.0587 61.047 44.067C61.5542 44.0608 62.0546 44.1852 62.5 44.428C62.9334 44.6653 63.2939 45.0162 63.543 45.443C63.8081 45.9015 63.9462 46.4224 63.943 46.952L59.273 47.862C59.4079 48.2525 59.6722 48.5852 60.022 48.805C60.4051 49.0349 60.8463 49.1498 61.293 49.136H61.294ZM61.05 44.965C60.7021 44.9592 60.3591 45.0473 60.057 45.22C59.7661 45.3889 59.5295 45.6373 59.375 45.936C59.2067 46.2671 59.1228 46.6346 59.131 47.006V47.117L62.892 46.407C62.8062 45.9948 62.5787 45.6257 62.249 45.364C61.9079 45.0948 61.4833 44.9536 61.049 44.965H61.05ZM68.55 44.065C69.0838 44.0571 69.6106 44.1877 70.079 44.444C70.5237 44.6893 70.8906 45.0544 71.138 45.498C71.4002 45.9768 71.5323 46.5161 71.521 47.062C71.5318 47.6097 71.3998 48.1508 71.138 48.632C70.8915 49.0767 70.5244 49.4427 70.079 49.688C69.6101 49.945 69.0826 50.0759 68.548 50.068C68.134 50.0733 67.724 49.9861 67.348 49.813C66.9892 49.6466 66.6793 49.3907 66.448 49.07V50.002H65.427V41.77H66.492V45.009C66.7236 44.7043 67.0288 44.4635 67.379 44.309C67.7469 44.1457 68.1455 44.0632 68.548 44.067L68.55 44.065ZM68.461 49.135C68.8174 49.1416 69.1691 49.0522 69.479 48.876C69.7786 48.7021 70.0243 48.4488 70.189 48.144C70.3673 47.8116 70.4572 47.439 70.45 47.062C70.4572 46.6849 70.3673 46.3123 70.189 45.98C70.0253 45.6758 69.7792 45.4238 69.479 45.253C69.1674 45.0797 68.8154 44.9921 68.459 44.999C68.1062 44.9948 67.7584 45.0826 67.45 45.254C67.1481 45.4227 66.9015 45.6752 66.74 45.981C66.5653 46.3144 66.4775 46.6866 66.485 47.063C66.4775 47.4394 66.5653 47.8115 66.74 48.145C66.9025 48.4513 67.1487 48.7052 67.45 48.877C67.7574 49.0512 68.1056 49.1406 68.459 49.136L68.461 49.135ZM77.666 50.068C77.1968 50.0697 76.7297 50.0044 76.279 49.874C75.903 49.7773 75.549 49.6096 75.236 49.38L75.68 48.537C75.9678 48.7357 76.2864 48.8858 76.623 48.981C76.9862 49.0908 77.3635 49.1467 77.743 49.147C78.6763 49.147 79.143 48.8803 79.143 48.347C79.1464 48.2668 79.1311 48.1869 79.0983 48.1137C79.0655 48.0404 79.0161 47.9758 78.954 47.925C78.8143 47.8156 78.6521 47.7388 78.479 47.7C78.2923 47.652 78.0256 47.5983 77.679 47.539C77.2862 47.4846 76.8981 47.4007 76.518 47.288C76.2231 47.1948 75.9574 47.0266 75.747 46.8C75.5187 46.5322 75.4032 46.1862 75.425 45.835C75.4191 45.5819 75.477 45.3315 75.5934 45.1067C75.7098 44.882 75.8809 44.6902 76.091 44.549C76.6207 44.2026 77.2469 44.0337 77.879 44.067C78.2754 44.0674 78.6702 44.1158 79.055 44.211C79.3959 44.2862 79.7219 44.4173 80.02 44.599L79.565 45.442C79.0563 45.1231 78.4651 44.9611 77.865 44.976C77.5075 44.9545 77.1509 45.0313 76.834 45.198C76.727 45.255 76.6374 45.34 76.5749 45.4439C76.5124 45.5478 76.4792 45.6667 76.479 45.788C76.4751 45.8741 76.4912 45.9599 76.5258 46.0388C76.5605 46.1177 76.6129 46.1876 76.679 46.243C76.8236 46.36 76.9923 46.4437 77.173 46.488C77.369 46.54 77.6443 46.599 77.999 46.665C78.3869 46.7267 78.7704 46.8139 79.147 46.926C79.4335 47.0148 79.6918 47.1772 79.896 47.397C80.1164 47.6557 80.2278 47.9898 80.207 48.329C80.212 48.5814 80.1519 48.8309 80.0325 49.0534C79.913 49.2758 79.7382 49.4637 79.525 49.599C78.9673 49.9403 78.3189 50.1039 77.666 50.068V50.068ZM84.056 50.068C83.5056 50.0769 82.9623 49.9433 82.479 49.68C82.0229 49.431 81.6446 49.0606 81.386 48.61C81.119 48.1383 80.9829 47.6039 80.992 47.062C80.9829 46.5201 81.119 45.9856 81.386 45.514C81.6437 45.0639 82.0223 44.6949 82.479 44.449C82.9628 44.1893 83.5049 44.0575 84.054 44.066C84.6015 44.0569 85.1421 44.1888 85.624 44.449C86.0788 44.696 86.4559 45.0647 86.713 45.514C86.98 45.9856 87.116 46.5201 87.107 47.062C87.116 47.6039 86.98 48.1383 86.713 48.61C86.4556 49.0595 86.0795 49.4297 85.626 49.68C85.1452 49.9434 84.6041 50.0771 84.056 50.068V50.068ZM84.056 49.136C84.4116 49.1415 84.7621 49.0513 85.071 48.875C85.3682 48.7013 85.6107 48.4476 85.771 48.143C85.9457 47.8095 86.0334 47.4374 86.026 47.061C86.0357 46.6856 85.9508 46.3138 85.779 45.98C85.6198 45.6758 85.3769 45.4236 85.079 45.253C84.7689 45.0802 84.4188 44.9923 84.064 44.998C83.7091 44.9923 83.359 45.0802 83.049 45.253C82.7487 45.4238 82.5027 45.6758 82.339 45.98C82.1607 46.3123 82.0708 46.6849 82.078 47.062C82.0708 47.439 82.1607 47.8116 82.339 48.144C82.5036 48.4488 82.7494 48.7021 83.049 48.876C83.3556 49.0506 83.7032 49.1403 84.056 49.136V49.136ZM91.699 44.066C92.2333 44.0571 92.7608 44.187 93.23 44.443C93.6752 44.6884 94.0425 45.0539 94.29 45.498C94.5522 45.9768 94.6843 46.5161 94.673 47.062C94.6838 47.6097 94.5518 48.1508 94.29 48.632C94.0432 49.0768 93.6757 49.4429 93.23 49.688C92.7611 49.945 92.2336 50.0759 91.699 50.068C91.285 50.0733 90.875 49.9861 90.499 49.813C90.1402 49.6466 89.8303 49.3907 89.599 49.07V50.002H88.579V41.77H89.644V45.009C89.8756 44.7043 90.1808 44.4635 90.531 44.309C90.8986 44.1459 91.2968 44.0633 91.699 44.067V44.066ZM91.61 49.136C91.9656 49.1415 92.3161 49.0513 92.625 48.875C92.9246 48.7011 93.1703 48.4478 93.335 48.143C93.5133 47.8106 93.6032 47.438 93.596 47.061C93.6032 46.6839 93.5133 46.3113 93.335 45.979C93.1713 45.6748 92.9252 45.4228 92.625 45.252C92.3149 45.0792 91.9648 44.9913 91.61 44.997C91.2572 44.9928 90.9094 45.0806 90.601 45.252C90.2991 45.4207 90.0525 45.6732 89.891 45.979C89.7163 46.3124 89.6285 46.6846 89.636 47.061C89.6285 47.4374 89.7163 47.8095 89.891 48.143C90.0535 48.4493 90.2997 48.7032 90.601 48.875C90.9085 49.0501 91.2571 49.1401 91.611 49.136H91.61ZM106.486 44.066C106.807 44.0492 107.129 44.0975 107.431 44.208C107.733 44.3184 108.009 44.4889 108.244 44.709C108.475 44.967 108.651 45.269 108.763 45.5968C108.874 45.9247 108.919 46.2716 108.893 46.617V50.002H107.829V46.74C107.864 46.2768 107.723 45.8175 107.435 45.453C107.29 45.3039 107.114 45.1881 106.919 45.1133C106.725 45.0386 106.517 45.0068 106.309 45.02C106.071 45.0078 105.834 45.046 105.612 45.1322C105.39 45.2184 105.189 45.3505 105.022 45.52C104.681 45.9222 104.51 46.4416 104.545 46.968V50.002H103.479V46.74C103.514 46.2768 103.373 45.8175 103.085 45.453C102.94 45.3039 102.764 45.1881 102.569 45.1133C102.375 45.0386 102.167 45.0068 101.959 45.02C101.721 45.0078 101.484 45.046 101.262 45.1322C101.04 45.2184 100.839 45.3505 100.672 45.52C100.331 45.9222 100.16 46.4416 100.195 46.968V50.002H99.132V44.122H100.153V44.998C100.367 44.6955 100.658 44.4562 100.996 44.305C101.369 44.1413 101.772 44.0601 102.179 44.067C102.602 44.0586 103.021 44.1537 103.399 44.344C103.749 44.5238 104.035 44.8065 104.22 45.154C104.449 44.807 104.769 44.5301 105.146 44.354C105.565 44.1567 106.024 44.0585 106.487 44.067L106.486 44.066ZM113.541 49.136C113.859 49.1488 114.176 49.0919 114.47 48.9693C114.763 48.8466 115.027 48.6612 115.241 48.426L115.818 49.114C115.554 49.4281 115.217 49.672 114.836 49.824C114.414 49.9917 113.963 50.0746 113.509 50.068C112.935 50.0799 112.367 49.9493 111.856 49.688C111.389 49.4461 111.002 49.0746 110.741 48.618C110.474 48.1443 110.338 47.6084 110.347 47.065C110.339 46.5265 110.471 45.9953 110.73 45.523C110.973 45.0744 111.336 44.7024 111.779 44.449C112.241 44.1899 112.763 44.0577 113.293 44.066C113.8 44.0598 114.301 44.1842 114.746 44.427C115.179 44.6643 115.54 45.0152 115.789 45.442C116.054 45.9005 116.192 46.4214 116.189 46.951L111.519 47.861C111.654 48.2515 111.918 48.5842 112.268 48.804C112.652 49.0348 113.094 49.1501 113.542 49.136H113.541ZM113.297 44.965C112.949 44.9592 112.606 45.0473 112.304 45.22C112.013 45.3889 111.777 45.6373 111.622 45.936C111.454 46.2671 111.37 46.6346 111.378 47.006V47.117L115.139 46.407C115.053 45.9948 114.826 45.6257 114.496 45.364C114.155 45.0952 113.732 44.954 113.298 44.965H113.297ZM123.225 41.77V50.002H122.206V49.07C121.975 49.3907 121.665 49.6466 121.306 49.813C120.93 49.9861 120.52 50.0733 120.106 50.068C119.573 50.0752 119.047 49.9443 118.579 49.688C118.133 49.4429 117.766 49.0768 117.519 48.632C117.257 48.1508 117.125 47.6097 117.136 47.062C117.125 46.5161 117.257 45.9768 117.519 45.498C117.767 45.0543 118.134 44.6891 118.579 44.444C119.048 44.188 119.576 44.0581 120.11 44.067C120.511 44.0628 120.908 44.1443 121.275 44.306C121.625 44.4605 121.93 44.7013 122.162 45.006V41.77H123.225ZM120.198 49.136C120.552 49.14 120.9 49.0499 121.207 48.875C121.508 48.7032 121.754 48.4493 121.917 48.143C122.092 47.8095 122.179 47.4373 122.172 47.061C122.179 46.6846 122.092 46.3124 121.917 45.979C121.755 45.6732 121.509 45.4207 121.207 45.252C120.899 45.0806 120.551 44.9928 120.198 44.997C119.843 44.9913 119.493 45.0792 119.183 45.252C118.883 45.4228 118.637 45.6748 118.473 45.979C118.295 46.3113 118.205 46.6839 118.212 47.061C118.205 47.438 118.295 47.8106 118.473 48.143C118.638 48.4478 118.883 48.7011 119.183 48.875C119.492 49.0513 119.842 49.1415 120.198 49.136V49.136ZM125.245 44.122H126.31V50.002H125.245V44.122ZM125.779 42.988C125.684 42.9909 125.589 42.9747 125.501 42.9403C125.412 42.906 125.331 42.8542 125.263 42.788C125.197 42.7254 125.144 42.6496 125.109 42.5656C125.074 42.4816 125.056 42.3911 125.058 42.3C125.057 42.208 125.074 42.1167 125.109 42.0317C125.145 41.9468 125.197 41.8699 125.263 41.806C125.33 41.7384 125.411 41.6854 125.5 41.6501C125.589 41.6149 125.684 41.5981 125.779 41.601C125.97 41.5947 126.155 41.6645 126.295 41.795C126.361 41.8563 126.414 41.9311 126.45 42.0144C126.485 42.0977 126.502 42.1875 126.5 42.278C126.501 42.3709 126.484 42.4631 126.449 42.549C126.414 42.635 126.361 42.7129 126.295 42.778C126.228 42.8464 126.148 42.9004 126.059 42.9365C125.97 42.9726 125.875 42.9902 125.779 42.988V42.988ZM133.888 41.768V50.002H132.866V49.07C132.635 49.3907 132.325 49.6466 131.966 49.813C131.59 49.9861 131.18 50.0733 130.766 50.068C130.233 50.0752 129.707 49.9443 129.239 49.688C128.793 49.4429 128.426 49.0768 128.179 48.632C127.917 48.1508 127.785 47.6097 127.796 47.062C127.785 46.5161 127.917 45.9768 128.179 45.498C128.427 45.0543 128.794 44.6891 129.239 44.444C129.708 44.188 130.236 44.0581 130.77 44.067C131.171 44.0628 131.568 44.1443 131.935 44.306C132.285 44.4605 132.59 44.7013 132.822 45.006V41.77L133.888 41.768ZM130.858 49.136C131.212 49.14 131.56 49.0499 131.867 48.875C132.168 48.7032 132.414 48.4493 132.577 48.143C132.752 47.8095 132.839 47.4373 132.832 47.061C132.84 46.6851 132.753 46.3133 132.579 45.98C132.417 45.6742 132.171 45.4217 131.869 45.253C131.561 45.0816 131.213 44.9938 130.86 44.998C130.505 44.9923 130.155 45.0802 129.845 45.253C129.545 45.4238 129.299 45.6758 129.135 45.98C128.957 46.3123 128.867 46.6849 128.874 47.062C128.867 47.439 128.957 47.8116 129.135 48.144C129.3 48.4488 129.545 48.7021 129.845 48.876C130.153 49.0516 130.503 49.1414 130.858 49.136V49.136ZM141.452 44.122V50.002H140.432V49.07C140.201 49.3907 139.891 49.6466 139.532 49.813C139.156 49.9861 138.746 50.0733 138.332 50.068C137.798 50.0754 137.272 49.9445 136.804 49.688C136.358 49.4419 135.991 49.0748 135.745 48.629C135.483 48.1478 135.351 47.6067 135.362 47.059C135.351 46.5131 135.483 45.9738 135.745 45.495C135.992 45.0514 136.359 44.6863 136.804 44.441C137.273 44.185 137.801 44.0551 138.335 44.064C138.736 44.0598 139.133 44.1413 139.5 44.303C139.85 44.4575 140.155 44.6983 140.387 45.003V44.116L141.452 44.122ZM138.424 49.136C138.778 49.14 139.126 49.0499 139.433 48.875C139.734 48.7032 139.98 48.4493 140.143 48.143C140.318 47.8095 140.405 47.4373 140.398 47.061C140.405 46.6846 140.318 46.3124 140.143 45.979C139.981 45.6732 139.735 45.4207 139.433 45.252C139.125 45.0806 138.777 44.9928 138.424 44.997C138.069 44.9913 137.719 45.0792 137.409 45.252C137.109 45.4228 136.863 45.6748 136.699 45.979C136.521 46.3113 136.431 46.6839 136.438 47.061C136.431 47.438 136.521 47.8106 136.699 48.143C136.864 48.4478 137.109 48.7011 137.409 48.875C137.718 49.0513 138.068 49.1415 138.424 49.136V49.136Z" fill="white"/>
</g>
<defs>
<clipPath id="clip0">
<rect width="141.512" height="52.487" fill="white"/>
</clipPath>
</defs>
</svg>
